<?xml version="1.0" encoding="utf-8"?>
<!-- Generator: Adobe Illustrator 16.0.0, SVG Export Plug-In . SVG Version: 6.00 Build 0)  -->
<!DOCTYPE svg PUBLIC "-//W3C//DTD SVG 1.1//EN" "http://www.w3.org/Graphics/SVG/1.1/DTD/svg11.dtd">
<svg version="1.1" id="Layer_1" xmlns="http://www.w3.org/2000/svg" xmlns:xlink="http://www.w3.org/1999/xlink" x="0px" y="0px"
	 width="125px" height="65px" viewBox="0 0 125 65" enable-background="new 0 0 125 65" xml:space="preserve">
<g>
	<path fill="#FFFFFF" d="M117.876,46.677l-0.59-0.399c-2.052-1.395-2.614-2.094-2.614-3.255c0-1.471,1.393-1.994,2.585-1.994
		c1.967,0,2.517,0.869,2.535,0.899c0.104,0.188,0.264,0.706,0.284,0.933c0.023,0.144,0.061,0.411,0.368,0.411
		c0.344,0,0.344-0.376,0.344-0.626c0-1.075,0.058-1.705,0.083-1.974c0.008-0.079,0.011-0.129,0.011-0.151
		c0-0.32-0.283-0.32-0.392-0.32c-0.158,0-0.309,0-0.689-0.089c-0.492-0.118-1.325-0.241-2.19-0.241
		c-2.905,0-4.781,1.554-4.781,3.956c0,1.537,0.884,2.822,3.047,4.438l0.944,0.711c1.85,1.374,2.55,2.02,2.55,3.35
		c0,1.535-1.128,2.489-2.94,2.489c-1.301,0-2.8-0.485-3.108-1.849c-0.066-0.262-0.066-0.528-0.066-0.689
		c0-0.303-0.189-0.412-0.366-0.412c-0.128,0-0.342,0.067-0.342,0.496c-0.006,0.066-0.013,0.152-0.022,0.256
		c-0.036,0.405-0.098,1.085-0.098,1.88c0,0.543,0.021,0.723,0.411,0.92c1.067,0.504,2.521,0.558,3.098,0.558
		c1.504,0,2.648-0.247,3.402-0.737c1.338-0.871,2.017-2.073,2.017-3.571C121.354,49.808,120.346,48.362,117.876,46.677"/>
	<path fill="#FFFFFF" d="M20.711,36.737c-0.493,0-1.129,0.033-1.551,0.057c-0.182,0.011-0.313,0.018-0.358,0.018
		c-0.104,0-0.309-0.01-0.576-0.021c-0.5-0.022-1.188-0.053-1.824-0.053c-0.255,0-0.729,0-0.729,0.386
		c0,0.125,0.061,0.337,0.459,0.337c0.257,0,0.606,0,0.847,0.076c0.185,0.095,0.213,0.286,0.213,0.394
		c0,0.215-0.121,0.601-0.211,0.878c-0.499,1.626-3.525,9.546-5.048,13.138L7.396,39.845c-0.333-0.862-0.649-1.677-0.649-1.964
		c0-0.134,0.036-0.238,0.204-0.316c0.177-0.078,0.571-0.104,0.854-0.104c0.393,0,0.435-0.254,0.435-0.362
		c0-0.36-0.533-0.36-0.851-0.36c-0.619,0-1.318,0.032-1.782,0.055c-0.236,0.011-0.414,0.02-0.495,0.02
		c-0.098,0-0.316-0.008-0.606-0.02c-0.586-0.021-1.472-0.055-2.259-0.055c-0.35,0-0.827,0-0.827,0.36c0,0.22,0.15,0.362,0.384,0.362
		c0.133,0,0.539,0,0.88,0.088c0.771,0.225,1.113,0.434,1.638,1.774l6,15.013l0.067,0.17c0.447,1.128,0.583,1.469,0.991,1.469
		c0.308,0,0.42-0.249,0.793-1.081c0.108-0.239,0.241-0.532,0.407-0.888c0.548-1.167,1.587-3.656,3.026-7.102l1.119-2.696
		c0.875-2.106,1.566-3.771,1.762-4.271c0.641-1.615,0.994-2.02,1.274-2.213c0.418-0.263,0.912-0.263,1.073-0.263
		c0.42,0,0.482-0.226,0.482-0.362C21.317,36.858,21.114,36.737,20.711,36.737"/>
	<path fill="#FFFFFF" d="M26.004,54.942c-0.17,0-0.603-0.044-0.924-0.093c-0.463-0.071-0.531-0.295-0.603-0.907
		c-0.094-0.822-0.094-2.377-0.094-4.347v-3.561c0-3.136,0-3.699,0.021-4.331c0.048-0.688,0.152-0.856,0.588-0.947
		c0.22-0.045,0.349-0.045,0.486-0.045c0.174,0,0.351-0.176,0.351-0.35c0-0.231-0.173-0.349-0.515-0.349
		c-0.464,0-1.303,0.024-1.767,0.038c-0.175,0.006-0.297,0.01-0.323,0.01c-0.034,0-0.168-0.005-0.359-0.011
		c-0.467-0.014-1.265-0.037-1.752-0.037c-0.342,0-0.516,0.117-0.516,0.349c0,0.166,0.144,0.35,0.349,0.35
		c0.132,0,0.381,0.023,0.604,0.07c0.306,0.063,0.471,0.223,0.519,0.923c0.046,0.635,0.046,1.198,0.046,4.33v3.561
		c0,1.647-0.014,3.451-0.117,4.347c-0.074,0.628-0.143,0.847-0.407,0.91c-0.175,0.043-0.422,0.09-0.596,0.09
		c-0.22,0-0.352,0.178-0.352,0.35c0,0.13,0.067,0.351,0.518,0.351c0.453,0,1.229-0.038,1.694-0.057
		c0.195-0.01,0.335-0.016,0.37-0.016c0.021,0,0.101,0.004,0.224,0.008c0.443,0.019,1.479,0.064,2.388,0.064
		c0.478,0,0.515-0.27,0.515-0.351C26.352,55.12,26.222,54.942,26.004,54.942"/>
	<path fill="#FFFFFF" d="M43.642,40.014c-0.563,0-1.054,0.021-1.392,0.035c-0.175,0.007-0.308,0.012-0.388,0.012
		c-0.078,0-0.239-0.005-0.453-0.011c-0.438-0.015-1.095-0.036-1.731-0.036c-0.176,0-0.587,0-0.587,0.326
		c0,0.222,0.141,0.373,0.35,0.373c0.156,0,0.619,0.022,0.988,0.093c0.46,0.085,0.609,0.33,0.634,1.698l0.204,9.637
		c-0.213-0.226-0.486-0.516-0.803-0.85c-1.03-1.095-2.441-2.593-3.809-4.006c-2.193-2.258-4.28-4.452-5.528-5.763
		c-0.581-0.61-0.966-1.017-1.073-1.124l-0.097-0.098c-0.315-0.324-0.579-0.572-0.839-0.572c-0.431,0-0.466,0.622-0.466,1.204V52.49
		c0,1.8-0.086,2.236-0.466,2.341c-0.285,0.09-0.647,0.111-0.798,0.111c-0.197,0-0.351,0.153-0.351,0.35
		c0,0.351,0.375,0.351,0.515,0.351c0.662,0,1.295-0.036,1.674-0.057c0.167-0.009,0.287-0.016,0.345-0.016
		c0.052,0,0.155,0.006,0.301,0.014c0.394,0.02,1.052,0.059,1.904,0.059c0.467,0,0.564-0.19,0.564-0.351
		c0-0.196-0.154-0.35-0.352-0.35c-0.217,0-0.662-0.03-0.997-0.113c-0.424-0.107-0.621-0.439-0.669-2.13l-0.224-9.025
		c0.885,0.955,2.835,3.003,5.083,5.36c2.184,2.278,5.208,5.261,5.442,5.468c1.238,1.138,1.431,1.282,1.714,1.282
		c0.35,0,0.35-0.28,0.35-1.631l0.049-11.82c0-1.264,0.077-1.47,0.587-1.576c0.22-0.044,0.373-0.044,0.463-0.044
		c0.241,0,0.421-0.195,0.421-0.373C44.206,40.014,43.796,40.014,43.642,40.014"/>
	<path fill="#FFFFFF" d="M63.379,54.942c-0.148,0-0.608-0.046-0.898-0.093c-0.48-0.071-0.527-0.275-0.603-0.907
		c-0.105-0.903-0.119-2.705-0.119-4.347v-3.561c0-3.131,0-3.695,0.048-4.331c0.048-0.688,0.148-0.857,0.563-0.946
		c0.242-0.046,0.352-0.046,0.489-0.046c0.191,0,0.372-0.169,0.372-0.35c0-0.158-0.094-0.349-0.54-0.349
		c-0.432,0-1.208,0.022-1.68,0.037c-0.203,0.005-0.349,0.011-0.385,0.011c-0.022,0-0.117-0.003-0.262-0.008
		c-0.456-0.013-1.408-0.04-2.111-0.04c-0.343,0-0.516,0.117-0.516,0.349c0,0.166,0.143,0.35,0.35,0.35
		c0.176,0,0.522,0.023,0.687,0.046c0.54,0.075,0.624,0.259,0.671,0.969c0.024,0.625,0.049,1.271,0.049,4.357v0.362l-8.58-0.001
		v-0.361c0-3.103,0-3.748,0.024-4.38c0.044-0.688,0.149-0.855,0.588-0.947c0.216-0.045,0.348-0.045,0.485-0.045
		c0.174,0,0.349-0.176,0.349-0.35c0-0.231-0.173-0.349-0.516-0.349c-0.464,0-1.289,0.024-1.747,0.038
		c-0.172,0.006-0.292,0.01-0.318,0.01c-0.03,0-0.142-0.004-0.306-0.009c-0.477-0.014-1.386-0.039-2.09-0.039
		c-0.341,0-0.516,0.117-0.516,0.349c0,0.174,0.177,0.35,0.351,0.35c0.175,0,0.521,0.023,0.686,0.046
		c0.555,0.077,0.651,0.283,0.696,0.948c0.048,0.634,0.048,1.198,0.048,4.329v3.561c0,1.969,0,3.521-0.119,4.341l-0.009,0.058
		c-0.095,0.6-0.146,0.799-0.399,0.858c-0.174,0.043-0.423,0.09-0.597,0.09c-0.22,0-0.35,0.178-0.35,0.35
		c0,0.13,0.067,0.351,0.518,0.351c0.451,0,1.24-0.038,1.711-0.057c0.199-0.01,0.341-0.016,0.375-0.016
		c0.021,0,0.099,0.004,0.222,0.008c0.437,0.019,1.457,0.064,2.366,0.064c0.479,0,0.517-0.27,0.517-0.351
		c0-0.171-0.123-0.35-0.349-0.35c-0.171,0-0.602-0.044-0.922-0.093c-0.462-0.071-0.531-0.295-0.604-0.907
		c-0.094-0.822-0.094-2.356-0.094-4.3l0.001-1.953l8.579,0.001v1.952c0,1.93,0,3.454-0.095,4.274
		c-0.074,0.636-0.151,0.871-0.433,0.936c-0.233,0.06-0.43,0.09-0.572,0.09c-0.218,0-0.348,0.178-0.348,0.35
		c0,0.231,0.173,0.351,0.514,0.351c0.447,0,1.288-0.039,1.739-0.059c0.178-0.009,0.301-0.014,0.327-0.014
		c0.027,0,0.126,0.005,0.273,0.01c0.47,0.021,1.447,0.063,2.313,0.063c0.516,0,0.542-0.293,0.542-0.351
		C63.755,55.119,63.625,54.942,63.379,54.942"/>
	<path fill="#FFFFFF" d="M72.265,39.729c-5.84,0-8.467,4.716-8.467,8.063c0,3.906,2.612,8.11,8.349,8.11
		c4.88,0,8.56-3.619,8.56-8.418C80.706,42.845,77.314,39.729,72.265,39.729 M72.739,54.704c-3.835,0-6.412-2.997-6.412-7.458
		c0-4.001,2.175-6.39,5.819-6.39c3.015,0,6.058,2.226,6.058,7.196C78.204,54.385,73.65,54.704,72.739,54.704"/>
	<path fill="#FFFFFF" d="M100.932,54.942c-0.2,0-0.731,0-1.295-0.182c-0.683-0.226-0.856-1.063-0.942-1.934l-1.424-12.393
		c-0.074-0.584-0.309-0.706-0.494-0.706c-0.278,0-0.419,0.282-0.497,0.436L90.367,52.34l-6.146-12.2
		c-0.177-0.357-0.446-0.411-0.592-0.411c-0.219,0-0.384,0.206-0.419,0.521l-1.519,13.169l-0.022,0.196
		c-0.089,0.728-0.165,1.177-0.633,1.257l-0.06,0.011c-0.257,0.039-0.387,0.061-0.526,0.061c-0.22,0-0.397,0.146-0.397,0.325
		c0,0.14,0.07,0.375,0.54,0.375c0.366,0,0.901-0.03,1.292-0.053c0.221-0.011,0.395-0.02,0.462-0.02c0.052,0,0.185,0.006,0.365,0.017
		c0.414,0.022,1.041,0.056,1.582,0.056c0.467,0,0.564-0.204,0.564-0.375c0-0.182-0.188-0.325-0.351-0.325
		c-0.154,0-0.446-0.029-0.765-0.114c-0.357-0.083-0.357-0.314-0.357-0.391c0-0.331,0-0.707,0.023-1.005l0.761-8.591
		c0.384,0.821,1.095,2.272,1.688,3.482c0.307,0.627,0.581,1.188,0.764,1.564c0.539,1.128,1.948,3.772,2.448,4.686
		c0.408,0.742,0.56,1.021,0.875,1.021s0.458-0.262,0.899-1.172l4.786-9.8l0.942,9.647c0.039,0.307,0.017,0.466-0.001,0.523
		c-0.144,0.055-0.238,0.185-0.238,0.333c0,0.298,0.358,0.357,0.759,0.396c0.774,0.072,3.115,0.12,3.577,0.12
		c0.373,0,0.613-0.148,0.613-0.375C101.282,55.078,101.134,54.942,100.932,54.942"/>
	<path fill="#FFFFFF" d="M111.416,52.544c-0.306,0-0.362,0.287-0.397,0.467c-0.117,0.798-0.397,1.065-0.833,1.256
		c-0.515,0.201-1.496,0.201-2.023,0.201c-2.062,0-2.265-0.254-2.308-1.442c-0.017-0.284-0.01-1.586-0.004-2.536
		c0.003-0.375,0.004-0.7,0.004-0.895l0.001-1.643c0.492,0.001,2.56,0.027,3.093,0.092c0.816,0.097,0.876,0.337,0.916,0.5
		c0.086,0.23,0.086,0.418,0.086,0.603c0,0.256,0.163,0.372,0.325,0.372c0.227,0,0.373-0.222,0.373-0.563
		c0-0.125,0.048-0.877,0.094-1.294c0.031-0.426,0.092-0.706,0.13-0.891c0.023-0.107,0.037-0.178,0.037-0.236
		c0-0.258-0.162-0.352-0.304-0.352c-0.134,0-0.227,0.099-0.354,0.233l-0.08,0.083c-0.161,0.161-0.425,0.185-0.861,0.228l-0.05,0.005
		c-0.336,0.032-1.965,0.047-3.405,0.047c0-0.011,0-0.02,0-0.029v-5.483c0-0.01,0-0.021,0.001-0.031
		c0.499,0.003,2.613,0.029,2.926,0.07c1.141,0.144,1.251,0.28,1.349,0.503c0.08,0.206,0.104,0.512,0.104,0.645
		c0,0.413,0.268,0.446,0.351,0.446c0.193,0,0.326-0.186,0.368-0.361c0.032-0.152,0.059-0.503,0.092-0.942
		c0.013-0.181,0.022-0.336,0.031-0.408c0.029-0.337,0.083-0.548,0.12-0.702c0.027-0.108,0.046-0.186,0.046-0.264
		c0-0.354-0.231-0.371-0.277-0.371c-0.097,0-0.181,0.036-0.249,0.067c-0.027,0.011-0.055,0.024-0.063,0.028l-0.129,0.02
		c-0.196,0.029-0.491,0.078-0.802,0.097c-0.138,0.006-0.629,0.011-1.463,0.011c-1.148,0-2.633-0.008-3.238-0.011h-0.272
		c-0.032,0-0.146-0.003-0.315-0.009c-0.485-0.014-1.405-0.04-2.106-0.04c-0.343,0-0.518,0.118-0.518,0.351
		c0,0.174,0.177,0.35,0.352,0.35c0.188,0,0.536,0.024,0.688,0.045c0.552,0.075,0.649,0.282,0.694,0.948
		c0.047,0.634,0.047,1.198,0.047,4.329v3.56c0,1.97,0,3.523-0.116,4.342l-0.01,0.062c-0.095,0.597-0.149,0.81-0.376,0.851
		c-0.076,0.008-0.161,0.024-0.249,0.042c-0.132,0.026-0.271,0.053-0.372,0.053c-0.219,0-0.348,0.177-0.348,0.348
		c0,0.132,0.066,0.351,0.514,0.351c0.356,0,0.867-0.028,1.221-0.048c0.447-0.023,0.847-0.023,0.895-0.023
		c0.296,0,0.849,0,1.727,0.048l0.515,0.014c0.822,0.026,1.844,0.058,3.12,0.058c0.823,0,1.162,0,1.342-0.659
		c0.122-0.45,0.291-1.837,0.291-1.993C111.741,52.591,111.515,52.544,111.416,52.544"/>
	<rect x="1.452" y="62.147" fill="#FFFFFF" width="42.753" height="0.554"/>
	<polygon fill="#FFFFFF" points="47.202,64.109 47.202,60.73 47.272,60.73 49.523,63.321 49.523,60.73 49.856,60.73 49.856,64.109 
		49.78,64.109 47.551,61.551 47.551,64.109 	"/>
	<rect x="55.354" y="60.73" fill="#FFFFFF" width="0.339" height="3.378"/>
	<polygon fill="#FFFFFF" points="58.424,60.73 58.758,60.73 58.758,62.147 60.483,62.147 60.483,60.73 60.819,60.73 60.819,64.109 
		60.483,64.109 60.483,62.476 58.758,62.476 58.758,64.109 58.424,64.109 	"/>
	<path fill="#FFFFFF" d="M63.524,60.729l1.577,3.38h-0.366l-0.53-1.113h-1.457l-0.526,1.113h-0.375l1.595-3.38H63.524z
		 M63.484,61.448l-0.577,1.224h1.151L63.484,61.448z"/>
	<polygon fill="#FFFFFF" points="66.132,64.109 66.132,60.73 66.206,60.73 68.451,63.321 68.451,60.73 68.78,60.73 68.78,64.109 
		68.71,64.109 66.479,61.551 66.479,64.109 	"/>
	<polygon fill="#FFFFFF" points="69.883,60.73 70.221,60.73 70.221,62.147 71.939,62.147 71.939,60.73 72.276,60.73 72.276,64.109 
		71.939,64.109 71.939,62.476 70.221,62.476 70.221,64.109 69.883,64.109 	"/>
	<path fill="#FFFFFF" d="M75.067,60.73h0.675c0.384,0,0.642,0.017,0.777,0.05c0.194,0.051,0.352,0.147,0.476,0.294
		c0.12,0.146,0.183,0.332,0.183,0.557c0,0.226-0.063,0.413-0.181,0.557c-0.119,0.144-0.282,0.245-0.49,0.295
		c-0.156,0.039-0.439,0.056-0.86,0.056h-0.24v1.571h-0.339V60.73z M75.406,61.064v1.141l0.57,0.01c0.232,0,0.4-0.024,0.508-0.063
		c0.107-0.043,0.192-0.108,0.254-0.206c0.059-0.094,0.089-0.2,0.089-0.314c0-0.115-0.03-0.216-0.089-0.311
		c-0.062-0.095-0.144-0.161-0.24-0.2c-0.104-0.039-0.268-0.057-0.497-0.057H75.406z"/>
	<polygon fill="#FFFFFF" points="78.225,60.73 78.563,60.73 78.563,62.147 80.283,62.147 80.283,60.73 80.619,60.73 80.619,64.109 
		80.283,64.109 80.283,62.476 78.563,62.476 78.563,64.109 78.225,64.109 	"/>
	<path fill="#FFFFFF" d="M81.676,60.73h0.338v2.038c0,0.242,0.006,0.396,0.014,0.454c0.015,0.134,0.058,0.246,0.116,0.334
		c0.062,0.09,0.157,0.165,0.283,0.227c0.128,0.059,0.254,0.089,0.383,0.089c0.112,0,0.225-0.023,0.321-0.069
		c0.106-0.052,0.187-0.115,0.261-0.199c0.065-0.086,0.116-0.186,0.15-0.307c0.021-0.085,0.036-0.261,0.036-0.528V60.73h0.334v2.038
		c0,0.303-0.029,0.545-0.089,0.735c-0.061,0.183-0.175,0.345-0.35,0.483c-0.181,0.138-0.394,0.208-0.645,0.208
		c-0.272,0-0.507-0.067-0.701-0.2c-0.19-0.126-0.325-0.3-0.39-0.515c-0.039-0.131-0.063-0.368-0.063-0.712V60.73z"/>
	<path fill="#FFFFFF" d="M88.264,61.359l-0.268,0.202c-0.147-0.19-0.325-0.339-0.529-0.435c-0.206-0.098-0.433-0.148-0.675-0.148
		c-0.272,0-0.523,0.066-0.753,0.197c-0.227,0.126-0.407,0.3-0.533,0.52c-0.125,0.219-0.19,0.464-0.19,0.733
		c0,0.412,0.141,0.758,0.425,1.033c0.281,0.274,0.641,0.415,1.072,0.415c0.469,0,0.865-0.188,1.184-0.558l0.268,0.201
		c-0.166,0.213-0.382,0.384-0.633,0.498c-0.247,0.115-0.528,0.177-0.839,0.177c-0.595,0-1.063-0.2-1.4-0.592
		c-0.289-0.334-0.435-0.732-0.435-1.204c0-0.496,0.175-0.913,0.525-1.248c0.348-0.338,0.779-0.505,1.302-0.505
		c0.318,0,0.6,0.062,0.854,0.185C87.891,60.957,88.1,61.132,88.264,61.359"/>
	<polygon fill="#FFFFFF" points="90.974,64.109 90.974,60.73 91.045,60.73 93.291,63.321 93.291,60.73 93.627,60.73 93.627,64.109 
		93.551,64.109 91.317,61.551 91.317,64.109 	"/>
	<path fill="#FFFFFF" d="M98.085,61.298l-0.264,0.252c-0.188-0.188-0.396-0.331-0.619-0.427c-0.227-0.093-0.444-0.143-0.656-0.143
		c-0.265,0-0.515,0.066-0.757,0.197c-0.239,0.128-0.425,0.306-0.558,0.529c-0.132,0.22-0.195,0.456-0.195,0.706
		c0,0.254,0.069,0.494,0.206,0.724c0.135,0.227,0.322,0.41,0.563,0.537c0.24,0.132,0.504,0.198,0.792,0.198
		c0.347,0,0.641-0.1,0.878-0.294c0.24-0.197,0.388-0.451,0.431-0.762h-1.078v-0.327h1.453c-0.001,0.521-0.154,0.938-0.462,1.244
		s-0.718,0.462-1.231,0.462c-0.625,0-1.122-0.215-1.487-0.641c-0.276-0.328-0.417-0.707-0.417-1.136c0-0.32,0.082-0.616,0.24-0.894
		c0.162-0.276,0.382-0.49,0.662-0.647c0.278-0.154,0.595-0.231,0.949-0.231c0.287,0,0.556,0.051,0.809,0.153
		C97.596,60.907,97.84,61.07,98.085,61.298"/>
	<path fill="#FFFFFF" d="M101.037,60.729l1.575,3.38h-0.365l-0.529-1.113h-1.456l-0.526,1.113h-0.376l1.594-3.38H101.037z
		 M100.997,61.448l-0.58,1.224h1.151L100.997,61.448z"/>
	<path fill="#FFFFFF" d="M103.524,60.73h0.674c0.382,0,0.643,0.017,0.777,0.05c0.194,0.051,0.353,0.147,0.476,0.294
		c0.121,0.146,0.184,0.332,0.184,0.557c0,0.226-0.062,0.413-0.181,0.557c-0.117,0.144-0.282,0.245-0.492,0.295
		c-0.152,0.039-0.44,0.056-0.858,0.056h-0.245v1.571h-0.334V60.73z M103.858,61.064v1.141l0.573,0.01
		c0.232,0,0.402-0.024,0.509-0.063c0.106-0.043,0.192-0.108,0.251-0.206c0.062-0.094,0.091-0.2,0.091-0.314
		c0-0.115-0.029-0.216-0.091-0.311c-0.059-0.095-0.138-0.161-0.241-0.2c-0.102-0.039-0.261-0.057-0.49-0.057H103.858z"/>
	<polygon fill="#FFFFFF" points="108.452,61.064 108.452,60.73 110.305,60.73 110.305,61.064 109.552,61.064 109.552,64.109 
		109.209,64.109 109.209,61.064 	"/>
	<path fill="#FFFFFF" d="M111.376,60.73h0.68c0.368,0,0.626,0.015,0.758,0.048c0.201,0.043,0.364,0.142,0.49,0.295
		c0.124,0.149,0.189,0.336,0.189,0.558c0,0.184-0.043,0.346-0.13,0.482c-0.085,0.141-0.212,0.247-0.374,0.317
		c-0.158,0.068-0.381,0.107-0.663,0.109l1.216,1.569h-0.42l-1.215-1.569h-0.192v1.569h-0.339V60.73z M111.715,61.064v1.144
		l0.583,0.007c0.228,0,0.395-0.024,0.499-0.065c0.11-0.043,0.192-0.11,0.256-0.204c0.06-0.095,0.092-0.2,0.092-0.316
		c0-0.112-0.032-0.215-0.094-0.309c-0.063-0.097-0.144-0.16-0.239-0.199c-0.101-0.039-0.268-0.057-0.499-0.057H111.715z"/>
	<path fill="#FFFFFF" d="M116.229,60.729l1.575,3.38h-0.359l-0.534-1.113h-1.455l-0.526,1.113h-0.377l1.598-3.38H116.229z
		 M116.187,61.448l-0.576,1.224h1.154L116.187,61.448z"/>
	<polygon fill="#FFFFFF" points="118.879,64.109 118.879,60.73 118.95,60.73 121.198,63.321 121.198,60.73 121.532,60.73 
		121.532,64.109 121.457,64.109 119.226,61.551 119.226,64.109 	"/>
	<path fill="#FFFFFF" d="M53.993,60.902c0.049-0.053,0.085-0.112,0.103-0.188c0.018-0.071,0.027-0.15,0.027-0.238h-0.396V60.12
		h0.638v0.088c0,0.031,0.006,0.065,0.015,0.106c0,0.085-0.006,0.176-0.015,0.267c0,0.104-0.026,0.199-0.075,0.283
		c-0.05,0.085-0.123,0.158-0.214,0.22c-0.027,0.022-0.053,0.039-0.085,0.061c-0.031,0.017-0.06,0.029-0.089,0.04
		c0.145,0.165,0.257,0.356,0.339,0.567c0.081,0.212,0.124,0.437,0.124,0.673c0,0.517-0.169,0.954-0.505,1.315
		c-0.34,0.363-0.745,0.544-1.229,0.544c-0.467,0-0.87-0.177-1.211-0.527c-0.355-0.364-0.53-0.798-0.53-1.302
		c0-0.52,0.17-0.959,0.51-1.32c0.335-0.355,0.747-0.537,1.226-0.537c0.21,0,0.414,0.039,0.615,0.122
		c0.196,0.083,0.375,0.195,0.531,0.345c0.018-0.008,0.053-0.029,0.114-0.072C53.942,60.949,53.98,60.921,53.993,60.902
		 M52.639,60.942c-0.393-0.002-0.725,0.145-1.002,0.439c-0.274,0.294-0.414,0.651-0.414,1.073c0,0.408,0.14,0.757,0.418,1.045
		c0.281,0.293,0.611,0.437,0.997,0.437c0.382,0,0.71-0.146,0.99-0.438c0.276-0.294,0.416-0.649,0.416-1.073
		c0-0.408-0.143-0.756-0.427-1.044C53.335,61.089,53.011,60.942,52.639,60.942"/>
	<rect x="63.474" y="64.288" fill="#FFFFFF" width="0.307" height="0.517"/>
	<polygon fill="#FFFFFF" points="82.641,60.548 83.364,60.008 83.628,60.232 82.775,60.674 	"/>
	<path fill="#FFFFFF" d="M100.283,60.716l0.597-0.521h0.264l0.607,0.521l-0.376,0.005l-0.363-0.301l-0.357,0.294L100.283,60.716z
		 M100.862,64.329h0.308v0.52h-0.308V64.329z"/>
	<polygon fill="#FFFFFF" points="116.891,60.548 116.759,60.674 115.903,60.232 116.167,60.008 	"/>
</g>
<g>
	<defs>
		<path id="SVGID_1_" d="M74.417,9.206c-6.668,0.809-13.485,3.027-13.937,9.745c-0.209,3.141,0.747,5.501,1.826,7.779
			c-2.71-2.696-6.622-4.858-12.109-4.331c3.341,0.958,7.285,2.788,9.404,5.207c0.447,0.514,1.104,1.406,0.948,2.165
			c-0.258,1.275-2.584,1.016-3.993,1.084c2.92,1.183,6.186,3.314,10.352,3.177c2.082-0.065,3.611-1.346,3.45-3.717
			c-0.293-4.262-3.398-7.904-3.724-12.72c-0.362-5.432,3.414-7.425,7.648-8.317c0.083,0.025,0.218,0,0.253-0.028
			c0.027-0.021,0.003-0.045-0.114-0.045H74.417z"/>
	</defs>
	<use xlink:href="#SVGID_1_"  overflow="visible" fill="#FFFFFF"/>
	<clipPath id="SVGID_2_">
		<use xlink:href="#SVGID_1_"  overflow="visible"/>
	</clipPath>
</g>
</svg>
